<?xml version="1.0" encoding="utf-8"?>
<!-- Generator: Adobe Illustrator 21.0.0, SVG Export Plug-In . SVG Version: 6.00 Build 0)  -->
<svg version="1.1" id="Capa_1" xmlns="http://www.w3.org/2000/svg" xmlns:xlink="http://www.w3.org/1999/xlink" x="0px" y="0px"
	 viewBox="0 0 3816.4 3816.4" style="enable-background:new 0 0 3816.4 3816.4;" xml:space="preserve">
<style type="text/css">
	.st0{fill:#8C2332;}
	.st1{fill:#10191F;}
</style>
<g>
	<path class="st0" d="M1191.6,1809.9c68.3-81.9,137.4-164.8,199.5-239.2c61.8,57.2,124.5,111.4,182.7,170
		c222,223.1,456,432.4,711,617.5c66.7,48.4,133.5,44.5,192-13.3c99.5-98.4,198.3-197.5,297.2-296.5c66-66.1,70.6-125.7,16.1-202.6
		c-5.1-7.1-9.5-14.7-14.5-22.4c4.3-6.3,7.7-12.4,12.2-17.6c65.8-77,131.8-153.8,200.1-233.5c72.7,90.8,141.3,180.6,159.5,297.1
		c24.2,155-31.1,285.7-134.6,396.2c-96.9,103.5-199.5,201.6-300.1,301.6c-177.1,176.1-421.9,195.2-623.3,48.2
		c-291.2-212.5-560.1-450.5-809-711.2c-27.9-29.2-56.7-57.6-85-86.4C1194,1816.6,1193.7,1814.4,1191.6,1809.9z"/>
	<path class="st0" d="M810.8,1352.1c-175.5-177.7-224.5-409.6-84.3-616.6c35.6-52.5,81.3-98.6,125.7-144.5
		c77.4-79.9,155.7-159.1,236.6-235.4c113.3-106.9,247-158.6,404.8-138.4c88.6,11.4,159.9,58.3,229.1,109.6
		c273.5,202.7,528.1,427.3,768.4,668.1c34.8,34.8,68.1,71.1,102.1,106.8c1.9,2,2.9,5,5.7,10.1c-71,77.9-142.4,156.3-216.4,237.5
		c-28.2-28.3-55-54.9-81.5-81.9c-247.4-251.8-503.2-494.1-792.7-698c-68.9-48.5-129.6-45.1-189.6,13.4
		c-102.3,99.7-203,201-302.5,303.4c-57.8,59.5-60.9,114.3-16.7,184.3c24.2,38.3,23.7,37.8-6.7,72.7
		c-58.2,66.8-115.8,134.1-173.7,201.1C816.5,1347.2,813.5,1349.6,810.8,1352.1z"/>
	<path class="st1" d="M2021.4,374c122.2-107,252.3-177.7,416.8-151.2c96.9,15.6,183.4,56.1,253,125.2
		c116,115.3,232.1,230.6,342.1,351.5c143.1,157.4,153.5,371,30,546.7c-152.1,216.3-322.5,418-505.5,608.8
		c-92,95.9-188.1,188-281.5,282.7c-19.6,19.8-35.2,23-57.6,3.8c-60.5-52-122.6-102.2-184-153.1c-25.7-21.3-26.6-33.1-2.1-57.6
		c62-61.8,126.1-121.7,186.6-185c113.1-118.1,227.4-235.2,335.1-358.1c84.3-96,160.7-199.1,238.1-300.9c56.7-74.6,53-139.6-12.1-207
		c-98.6-102-199-202.3-300.5-301.5c-51.9-50.7-138.5-63.4-197.3-14.1c-5.6,4.7-21.6,5.1-27.2,0.6
		C2177.9,502.8,2101.3,439.5,2021.4,374z"/>
	<path class="st1" d="M1788.4,961.5c-96.4,98.2-187.6,190.7-278.3,283.8c-183.1,187.9-353.4,386.8-508.1,598.9
		c-51.7,70.9-46.9,145.5,17.6,210.7c96.3,97.4,193.8,193.6,292.2,288.8c64.3,62.3,121.1,67.6,197.5,20.5
		c20.5-12.7,32.6-17.4,54.4,2.6c60.1,54.9,124.5,105.1,187.1,157.2c16.8,14,29.6,30.5,6.7,48.4c-79.7,62.4-163.1,118.7-266.5,132.5
		c-128.9,17.1-247.2-8.7-347.8-95.8c-151.5-131.1-293.3-272.2-416.3-430.3c-109.5-140.7-109.6-362.3,2.5-501.7
		c145.6-181,294-360.2,448.1-534c108.3-122.2,228.2-234.3,343-350.7c15.7-16,32.4-25.4,53.8-7.3c64.7,54.6,129.9,108.7,195,162.9
		C1773.7,951.7,1778.7,954.7,1788.4,961.5z"/>
	<path d="M3194.4,3133.2c-7.5,3.9-17,6-22,12c-7.4,8.9-11,20.8-17.3,30.8c-26.4,42.3-55.8,81.7-102.2,108.4
		c-23.5-40.9-57.4-60.6-108.6-60c17.3-14.9,27.8-23.6,37.9-32.8c25.4-23.2,52-45.4,75.4-70.5c17.3-18.6,10.4-34-14.3-34.5
		c-55.2-1.1-110.5-1.5-165.6,0.9c-8.3,0.4-21.9,17.4-22.1,27c-0.2,8.9,12.8,20.5,22.7,26.3c7.1,4.2,18.7,0.8,33.1,0.8
		c-24.1,62.7-44.1,122-106.5,159.6c-4.2-13.6-8.8-21.8-8.9-29.9c-0.1-49.8-0.8-99.8,2.2-149.5c1.5-25-9.9-35.2-30.6-37.6
		c-20.3-2.4-34.1,6.3-35.2,29.6c-1.7,38.3-5.5,76.5-6.2,114.8c-0.5,31.6-15,52.6-43.9,72c-4.5-14.1-10.4-23.9-10.4-33.7
		c0.1-48.1,0-96.4,3.8-144.2c1.9-23.5-7.8-32.9-27-37.7c-26.2-6.5-41.4,5.8-40.8,38.6c1.5,77.3-49.6,118.4-98.7,157.9
		c-18.1-16-31.9-32.4-49.4-42.3c-17-9.6-37.8-12.4-59.9-19.1c10.2-9.4,19.1-18,28.4-26.3c25.6-23,51.9-45.1,76.4-69.2
		c6.4-6.3,11-19.4,9-27.6c-1.2-5.3-15.9-10.3-24.6-10.4c-52.2-0.9-104.5,0-156.8-0.6c-21-0.3-28.6,11.6-28.5,29.3
		c0.1,16.5,7.7,28.1,27.4,26.9c8.1-0.5,16.3,1.4,29.9,2.7c-17.4,39.3-31.9,74.5-48.7,108.7c-9,18.3-17.2,48.2-42.9,39.2
		c-25.6-8.9-21.8-40-19.2-62.9c3.5-31.1,11.5-61.6,17.8-92.4c6-29.3-9.8-45.8-38.9-39.7c-14.4,3-28.5,7.2-42.4,10.8
		c0-25.5,3.8-49.7-1.3-71.8c-3.4-14.8-17.4-34.3-30.3-37.8c-13.4-3.6-34.7,5.8-46.5,16.4c-27.1,24.2-27.9,69.6-7.7,103.7
		c4.9,8.2,10.2,21.2,7,28.2c-19.6,42.5-40.6,84.4-63.4,125.3c-5.3,9.4-19.5,13.9-29.6,20.6c-5.1-11-14.4-21.9-14.5-32.9
		c-0.2-46,3.2-92.1,3.4-138.1c0.1-10.2-4.9-26-12-29.3c-10.8-4.9-25.8-2.4-38.6-0.3c-5.2,0.9-9.1,9-13.8,14.1
		c-32-24.1-62.1-18-90.4,3.6c-33.2,25.3-52.3,59.2-51.4,101.3c0.2,9.6-1.3,17.9-4.2,25.4c0.1,7.2,0.2,14.4,0.3,21.6
		c0,7.1-0.2,14.4,1.9,21.1c1.5-1.4,3-2.8,4.5-4.2c64.5,73.9,73.7,74.2,144,2.3c1.9,3.7,3.2,7,5,9.9c28.3,45.6,68.3,52.5,107,15.9
		c16.1-15.2,29.8-34.3,40.2-54c16.8-31.9,30-65.8,44.3-98.1c19.2-4.2,38.9-8.4,60.6-13.1c-2.1,12.2-5.9,23.7-5.8,35
		c0.5,38.7-5,79.6,5.6,115.6c13.7,46.7,74.9,55.7,108.2,19.7c17.1-18.5,29.5-41.2,41.3-58.2c20.2,1.4,39,2.5,57.8,4.1
		c26.5,2.2,36.6,22.9,41,43.6c1.5,7-13.9,18.9-23.2,26.6c-25.6,21.2-54.6,39-77.7,62.6c-40.4,41.3-56.4,92-40.3,149.3
		c16.7,59.4,85.7,83.7,137.5,50.6c43.9-28.1,68.3-70.2,74-118.8c6-51.6,1.4-104.5,1.4-158.6c11.6-9.8,26.3-21.3,40.1-33.9
		c14-12.7,27.2-26.4,41.8-40.8c4.7,36.6,12.2,69.9,47.8,87.8c39.9,20,63.9-4.9,85.5-32.8c51.8,53.8,90.5,51.6,135.6-5.8
		c10.2-12.9,18.7-27.2,24.1-35.1c22.1,2,38.8,4.8,55.5,4.9c29.6,0.2,42.8,20,47.6,43.5c1.5,7.5-14.4,20.9-24.9,28
		c-57,38.8-110.9,79.4-120.9,154.9c-6.6,49.9,15.2,95.3,55.1,113.8c44,20.4,93,5.1,125.8-42.1c50.7-73.3,54-153.8,31.9-238.9
		c7.7-6.1,16-12.7,24.4-19.3c46.8-36.3,79.5-84,107-135.4C3201.2,3152.7,3195.7,3141.9,3194.4,3133.2z M1895.5,3285.7
		c-7.2,6.8-16.8,11-28.5,18.5c-20.3-58-15.7-109.1,15.4-155.8c6.7-10,26.1-11.6,39.6-17.1c4.8,12.8,13.4,25.5,13.6,38.4
		C1936.1,3212.7,1928.7,3254.2,1895.5,3285.7z M2145.7,3097.6L2145.7,3097.6c-0.1,0-8.4-49.8-0.1-64.5c4.3-7.9,9.5,0,9.5,0v55.7
		C2155.2,3094,2150.8,3098,2145.7,3097.6z M2388.7,3142.9h54c-26.1,23.9-48.8,44.8-77.2,70.7
		C2374.7,3185.7,2381.7,3164.5,2388.7,3142.9z M2428.4,3536.7c-8,14.3-31.7,29.1-46.7,27.6c-14.8-1.4-33-20.5-40.4-36.2
		c-19.3-41.5-7.5-82.4,21.9-113.9c26.6-28.5,60.2-50.6,96.9-80.5C2470.9,3412.4,2461.6,3477.2,2428.4,3536.7z M2988.5,3147.1
		c-22.6,20.8-44.7,41.1-68.2,62.7C2938.7,3137,2941.9,3134.1,2988.5,3147.1z M2990.5,3515.7c-12.8,35.1-41.1,56.1-63.8,50
		c-26.8-7.3-46.5-43.9-43.3-78.7c3.7-39.1,20.6-71.2,51.1-95.4c22.7-17.9,47-33.7,75.7-54.1
		C3021.7,3404.8,3010.5,3460.9,2990.5,3515.7z"/>
	<path class="st0" d="M729.7,2961c-34.7-2-71-4-110.6-6.3c-7-18.1,9.9-21.3,23.7-21.1c33.2,0.7,66.3,4.1,96.4,6.2
		c16-20.7,29.4-41.1,45.9-58.7c17.2-18.2,39.4-26.1,64.1-14.8c23.8,10.9,22.3,33,20.1,53.6c-2.8,25.9-21.3,38.8-44.1,46
		c-17.8,5.6-44-4.8-47.8,26.2c-5,40.3-10.8,81.6,19.4,114.7c5.9,6.5,27.7,7.3,35.9,1.6c35.6-24.6,70.3-51.1,69.2-102.1
		c-0.1-6.5,14.3-19.9,19.3-18.7c11.3,2.7,28.1,11,30,19.7c7.2,33.3,10,67.5,13.1,101.6c1.6,17.4,0.3,35,0.3,53.6
		c33.2,2.5,59.2-5.5,82.9-23.4c4.6-3.5,12.6-2.6,19.1-3.7c-1.1,6.2-0.3,16.3-3.6,17.8c-25.1,11.8-50.2,25-76.9,31.3
		c-16.5,3.9-24.2,5.9-28.3,24.8c-12,55.3-36.4,101.8-98.8,115.7c-49.6,11-87.8-16.3-103.1-75.7c-10.1-39.3,13.1-74.4,60.3-84.5
		c30.3-6.5,62-7.1,95.7-10.6c0-27.3,0-55.3,0-85.8c-20.9,19.6-39,39.8-60.2,55.8c-54.2,40.9-112.4,18-121.2-49.1
		C725.9,3040.3,729.7,3004,729.7,2961z M916.4,3186.8c-2.7-3.2-5.3-6.4-8-9.7c-31.8,3.5-64,4.9-95.1,11.4
		c-21.9,4.6-38.5,19.2-38,45.5c0.5,26.2,24.2,66.7,47.5,67.2c18.1,0.3,43.3-10.8,53.2-25.2C894.2,3249.6,903.5,3216.9,916.4,3186.8z
		 M791.5,2943.7c48.1,3.6,61.3-10.5,52.5-54.6C809.9,2889.9,806.7,2919.9,791.5,2943.7z"/>
	<path d="M1129.3,3285.9c-19.5,16.2-30.8,33.2-43.9,34.8c-20.4,2.5-30.3-16.7-29.9-35.8c0.4-18.8,9.8-38.5,30.4-35.4
		C1099.1,3251.5,1110,3268.9,1129.3,3285.9z"/>
	<path class="st0" d="M1795.8,3230.2c-1.5,6.2-3.5,10-4.2,11.4c-4.7,9.8-12,18-21.4,25.4c-20,15.8-33.7,11.8-42.5-12
		c-2.7-7.3-5.4-15-5.9-22.7c-4.3-74.5-7.1-149.2-12.7-223.7c-2.6-34.9-8.5-69.9-16.7-103.9c-2.6-10.7-17.2-25-27.1-25.6
		c-12.1-0.8-27.7,8.5-37,18.1c-9.8,10.1-14.9,25.3-20.3,39c-7.1,18.1-12.6,36.8-20.8,61.4c-7.6-38.6-11.6-70.7-21.1-101.1
		c-4.1-13.1-18.5-30.3-30-31.7c-13.3-1.6-32.8,8.6-41.9,19.8c-13.8,17.1-24.5,38.5-30.4,59.8c-13.9,49.7-24.1,100.5-36.7,154.7
		c0-17.7-0.8-31.9,0.1-46c3.3-52,7-104,11.1-156c1.2-15.4,0.3-28-19.2-29.3c-17.1-1.2-32.2,0.5-34.3,22.3c-2,20.5-5.8,40.9-6.1,61.4
		c-1.7,105.4-3.5,210.7-3,316.1c0.1,21.1,2.8,52.2,32.4,51.4c32.7-0.9,26.6-32.4,29.5-55.1c11.8-93.3,22.1-186.8,37-279.7
		c5-31.4,12.8-65.8,45.9-88.6c2.9,10.3,6.6,18.4,7.2,26.6c4.3,55.8,8.9,111.6,11.4,167.5c3.2,70.7,3.5,141.6,7.7,212.2
		c0.5,8.7,16.5,22.1,26.6,23.4c15.2,2,18.3-12.4,18.1-26.9c-0.6-51.2-4.6-103,1-153.6c7.4-66.9,21.8-133.2,35.2-199.3
		c2.7-13.5,14-25.3,21.4-37.8c2.9,1.1,5.7,2.1,8.6,3.2c2,22.2,5.6,44.4,5.9,66.6c0.7,76.7-1.9,153.6,1.4,230.2
		c1.3,30.3,11.3,61.7,23.8,89.6c12.3,27.5,42.2,33,67.7,16.2c13.6-9,25.1-21.1,37.2-32.4c0.9-0.9,5.3-5,6.3-5.8
		C1797.8,3261.9,1795.9,3244.1,1795.8,3230.2z"/>
</g>
</svg>
